<?xml version="1.0" standalone="no"?>
<!DOCTYPE svg PUBLIC "-//W3C//DTD SVG 1.0//EN" "http://www.w3.org/TR/2001/REC-SVG-20010904/DTD/svg10.dtd">
<svg xmlns="http://www.w3.org/2000/svg" xmlns:xlink="http://www.w3.org/1999/xlink" id="body_1" width="53" height="40">

<g transform="matrix(0.3125 0 0 0.3125 6.5000014 -0)">
	<g>
        <path d="M115.4 30.7L67.100006 2.9000015C 66.3 2.4000015 65.200005 2.2000015 64.00001 2.2000015C 62.800007 2.2000015 61.70001 2.5000014 60.90001 2.9000015L60.90001 2.9000015L12.900009 30.800001C 11.200009 31.800001 10.00001 34.300003 10.00001 36.2L10.00001 36.2L10.00001 91.9C 10.00001 93 10.200009 94.3 11.00001 95.4L11.00001 95.4L117.80001 33.4C 117.20001 32.2 116.30001 31.300001 115.40001 30.7L115.40001 30.7L115.4 30.7z" stroke="none" fill="#9B4F96" fill-rule="nonzero" />
        <path d="M10.7 95.3C 11.2 96.100006 11.9 96.8 12.599999 97.200005L12.599999 97.200005L60.8 125.100006C 61.6 125.600006 62.7 125.8 63.899998 125.8C 65.1 125.8 66.2 125.5 67 125.100006L67 125.100006L115 97.200005C 116.7 96.200005 117.9 93.700005 117.9 91.8L117.9 91.8L117.9 36.100002C 117.9 35.2 117.8 34.2 117.3 33.300003L117.3 33.300003L10.700005 95.3L10.7 95.3z" stroke="none" fill="#68217A" fill-rule="nonzero" />
        <path d="M85.3 76.1C 81.100006 83.5 73.100006 88.5 64 88.5C 50.5 88.5 39.5 77.5 39.5 64C 39.5 50.5 50.5 39.5 64 39.5C 73.1 39.5 81.1 44.5 85.3 52L85.3 52L98.3 44.5C 91.5 32.6 78.700005 24.5 64 24.5C 42.2 24.5 24.5 42.2 24.5 64C 24.5 85.8 42.2 103.5 64 103.5C 78.6 103.5 91.4 95.5 98.2 83.7L98.2 83.7L85.299995 76.1L85.3 76.1zM97 66.2L97.9 61.899998L93.700005 61.899998L93.700005 57.199997L98.8 57.199997L100 50.999996L104.9 50.999996L103.700005 57.099995L107.50001 57.099995L108.700005 50.999996L113.50001 50.999996L112.30001 57.099995L114.70001 57.099995L114.70001 61.799995L111.40001 61.799995L110.50001 66.1L114.700005 66.1L114.700005 70.799995L109.600006 70.799995L108.40001 76.799995L103.50001 76.799995L104.700005 70.799995L100.9 70.799995L99.700005 76.799995L94.9 76.799995L96.1 70.799995L93.7 70.799995L93.7 66.1L97 66.1zM101.8 66.2L105.600006 66.2L106.50001 61.899998L102.700005 61.899998L101.8 66.2z" stroke="none" fill="#FFFFFF" fill-rule="nonzero" />
	</g>
</g>
</svg>