<?xml version="1.0" encoding="UTF-8"?>
<svg xmlns="http://www.w3.org/2000/svg" xmlns:xlink="http://www.w3.org/1999/xlink" width="px" height="40px" viewBox="0 0 40 40" version="1.1">
<g id="surface1">
<rect x="0" y="0" width="40" height="40" style="fill:rgb(96.862745%,87.45098%,11.764706%);fill-opacity:1;stroke:none;"/>
<path style=" stroke:none;fill-rule:nonzero;fill:rgb(0%,0%,0%);fill-opacity:1;" d="M 10.515625 33.425781 L 13.578125 31.574219 C 14.167969 32.621094 14.707031 33.507812 15.996094 33.507812 C 17.230469 33.507812 18.007812 33.023438 18.007812 31.144531 L 18.007812 18.363281 L 21.769531 18.363281 L 21.769531 31.199219 C 21.769531 35.089844 19.484375 36.863281 16.15625 36.863281 C 13.148438 36.863281 11.402344 35.304688 10.515625 33.425781 M 23.808594 33.023438 L 26.871094 31.253906 C 27.675781 32.566406 28.722656 33.535156 30.574219 33.535156 C 32.132812 33.535156 33.125 32.753906 33.125 31.679688 C 33.125 30.394531 32.105469 29.9375 30.386719 29.183594 L 29.449219 28.78125 C 26.734375 27.628906 24.9375 26.175781 24.9375 23.117188 C 24.9375 20.296875 27.085938 18.148438 30.441406 18.148438 C 32.832031 18.148438 34.550781 18.980469 35.785156 21.15625 L 32.859375 23.035156 C 32.214844 21.882812 31.515625 21.425781 30.441406 21.425781 C 29.339844 21.425781 28.640625 22.125 28.640625 23.035156 C 28.640625 24.164062 29.339844 24.621094 30.953125 25.320312 L 31.890625 25.722656 C 35.085938 27.089844 36.886719 28.488281 36.886719 31.628906 C 36.886719 35.011719 34.226562 36.863281 30.65625 36.863281 C 27.164062 36.863281 24.910156 35.199219 23.808594 33.023438 "/>
</g>
</svg>
