<?xml version="1.0" encoding="UTF-8"?>
<svg xmlns="http://www.w3.org/2000/svg" xmlns:xlink="http://www.w3.org/1999/xlink" width="px" height="40px" viewBox="0 0 40 40" version="1.1">
<defs>
<filter id="alpha" filterUnits="objectBoundingBox" x="0%" y="0%" width="100%" height="100%">
  <feColorMatrix type="matrix" in="SourceGraphic" values="0 0 0 0 1 0 0 0 0 1 0 0 0 0 1 0 0 0 1 0"/>
</filter>
<mask id="mask0">
  <g filter="url(#alpha)">
<rect x="0" y="0" width="40" height="40" style="fill:rgb(0%,0%,0%);fill-opacity:0.101961;stroke:none;"/>
  </g>
</mask>
<clipPath id="clip1">
  <rect x="0" y="0" width="40" height="40"/>
</clipPath>
<g id="surface5" clip-path="url(#clip1)">
<path style=" stroke:none;fill-rule:nonzero;fill:rgb(0%,0%,0%);fill-opacity:1;" d="M 21.261719 0.816406 C 21.242188 0.890625 21.242188 0.96875 21.261719 1.046875 C 21.261719 1.046875 21.511719 2.671875 21.226562 3.398438 L 9.433594 34.082031 C 8.589844 36.339844 9.71875 38.847656 11.976562 39.707031 C 14.238281 40.570312 16.746094 39.460938 17.644531 37.21875 L 29.433594 6.535156 C 29.664062 5.941406 30.984375 4.773438 30.984375 4.773438 C 31.042969 4.714844 31.097656 4.660156 31.136719 4.601562 L 31.136719 4.585938 C 31.136719 4.566406 31.15625 4.566406 31.15625 4.546875 C 31.464844 3.761719 29.492188 2.269531 26.773438 1.214844 C 24.054688 0.164062 21.585938 -0.046875 21.28125 0.757812 C 21.28125 0.757812 21.261719 0.777344 21.261719 0.816406 Z M 21.261719 0.816406 "/>
</g>
<linearGradient id="linear0" gradientUnits="userSpaceOnUse" x1="-67.303" y1="133.982" x2="-67.293" y2="133.98" gradientTransform="matrix(935.024667,0,0,-1685.988833,62944.35,225910.39)">
<stop offset="0" style="stop-color:rgb(56.862745%,56.862745%,56.862745%);stop-opacity:1;"/>
<stop offset="1" style="stop-color:rgb(100%,100%,100%);stop-opacity:1;"/>
</linearGradient>
<linearGradient id="linear1" gradientUnits="userSpaceOnUse" x1="-69.037" y1="134.562" x2="-69.028" y2="134.56" gradientTransform="matrix(622.819,0,0,-1023.513,43011.7,137750.676667)">
<stop offset="0" style="stop-color:rgb(60%,0%,0%);stop-opacity:1;"/>
<stop offset="1" style="stop-color:rgb(90.980392%,0%,0%);stop-opacity:1;"/>
</linearGradient>
<mask id="mask1">
  <g filter="url(#alpha)">
<rect x="0" y="0" width="40" height="40" style="fill:rgb(0%,0%,0%);fill-opacity:0.301961;stroke:none;"/>
  </g>
</mask>
<clipPath id="clip2">
  <rect x="0" y="0" width="40" height="40"/>
</clipPath>
<g id="surface8" clip-path="url(#clip2)">
<path style=" stroke:none;fill-rule:nonzero;fill:rgb(100%,100%,100%);fill-opacity:1;" d="M 20.839844 0.773438 C 20.839844 0.773438 21.085938 2.394531 20.800781 3.121094 L 9.085938 33.71875 C 8.25 35.96875 9.371094 38.472656 11.617188 39.328125 C 11.996094 39.484375 12.398438 39.578125 12.796875 39.597656 C 11.253906 38.421875 10.660156 36.375 11.328125 34.558594 L 22.816406 4.570312 C 22.816406 4.570312 21.238281 3.101562 20.839844 0.773438 Z M 20.839844 0.773438 "/>
</g>
<mask id="mask2">
  <g filter="url(#alpha)">
<rect x="0" y="0" width="40" height="40" style="fill:rgb(0%,0%,0%);fill-opacity:0.501961;stroke:none;"/>
  </g>
</mask>
<clipPath id="clip3">
  <rect x="0" y="0" width="40" height="40"/>
</clipPath>
<g id="surface11" clip-path="url(#clip3)">
<path style=" stroke:none;fill-rule:nonzero;fill:rgb(100%,100%,100%);fill-opacity:1;" d="M 17.414062 20.511719 C 17.414062 20.320312 17.261719 20.167969 17.074219 20.167969 C 16.882812 20.167969 16.730469 20.320312 16.730469 20.511719 C 16.730469 20.699219 16.882812 20.851562 17.074219 20.851562 C 17.261719 20.851562 17.414062 20.699219 17.414062 20.511719 Z M 17.414062 20.511719 "/>
<path style=" stroke:none;fill-rule:nonzero;fill:rgb(100%,100%,100%);fill-opacity:1;" d="M 19.8125 22.972656 C 19.8125 22.6875 19.582031 22.457031 19.296875 22.457031 C 19.015625 22.457031 18.785156 22.6875 18.785156 22.972656 C 18.785156 23.257812 19.015625 23.488281 19.296875 23.488281 C 19.582031 23.488281 19.8125 23.257812 19.8125 22.972656 Z M 19.8125 22.972656 "/>
<path style=" stroke:none;fill-rule:nonzero;fill:rgb(100%,100%,100%);fill-opacity:1;" d="M 16.863281 25.910156 C 16.863281 25.375 16.429688 24.9375 15.894531 24.9375 C 15.359375 24.9375 14.925781 25.375 14.925781 25.910156 C 14.925781 26.449219 15.359375 26.886719 15.894531 26.886719 C 16.429688 26.886719 16.863281 26.449219 16.863281 25.910156 Z M 16.863281 25.910156 "/>
<path style=" stroke:none;fill-rule:nonzero;fill:rgb(100%,100%,100%);fill-opacity:1;" d="M 14.847656 27.703125 C 14.847656 27.421875 14.617188 27.191406 14.335938 27.191406 C 14.050781 27.191406 13.820312 27.421875 13.820312 27.703125 C 13.820312 27.988281 14.050781 28.21875 14.335938 28.21875 C 14.617188 28.21875 14.847656 27.988281 14.847656 27.703125 Z M 14.847656 27.703125 "/>
<path style=" stroke:none;fill-rule:nonzero;fill:rgb(100%,100%,100%);fill-opacity:1;" d="M 16.710938 31.523438 C 16.710938 31.332031 16.558594 31.179688 16.371094 31.179688 C 16.179688 31.179688 16.027344 31.332031 16.027344 31.523438 C 16.027344 31.714844 16.179688 31.867188 16.371094 31.867188 C 16.558594 31.867188 16.710938 31.714844 16.710938 31.523438 Z M 16.710938 31.523438 "/>
</g>
</defs>
<g id="surface1">
<path style=" stroke:none;fill-rule:nonzero;fill:rgb(0%,0%,0%);fill-opacity:1;" d="M 21.648438 17.140625 C 20.1875 17.804688 19.109375 17.628906 17.796875 18.398438 C 16.484375 19.167969 15.824219 20.238281 15.824219 20.238281 L 10.480469 34.175781 C 9.902344 35.75 10.761719 37.589844 12.351562 38.207031 C 13.945312 38.824219 15.738281 38.007812 16.355469 36.449219 L 24.710938 14.625 C 24.710938 14.625 23.109375 16.472656 21.648438 17.140625 Z M 14.835938 28.25 L 14.835938 28.261719 C 14.582031 28.375 14.28125 28.261719 14.175781 28.003906 C 14.058594 27.75 14.175781 27.449219 14.429688 27.34375 C 14.6875 27.226562 14.988281 27.34375 15.089844 27.597656 C 15.214844 27.847656 15.105469 28.121094 14.835938 28.25 Z M 16.789062 31.882812 C 16.613281 31.953125 16.414062 31.882812 16.347656 31.707031 C 16.277344 31.546875 16.347656 31.347656 16.523438 31.265625 C 16.695312 31.199219 16.894531 31.265625 16.964844 31.441406 C 17.03125 31.613281 16.960938 31.8125 16.789062 31.882812 Z M 16.558594 26.910156 C 16.0625 27.121094 15.515625 26.910156 15.289062 26.433594 L 15.3125 26.4375 C 15.105469 25.957031 15.3125 25.398438 15.789062 25.171875 C 16.261719 24.964844 16.808594 25.171875 17.035156 25.648438 C 17.234375 26.128906 17.035156 26.6875 16.558594 26.910156 Z M 17.460938 20.992188 C 17.289062 21.0625 17.085938 20.992188 17.023438 20.820312 C 16.949219 20.644531 17.03125 20.441406 17.191406 20.375 C 17.367188 20.304688 17.566406 20.375 17.636719 20.550781 C 17.707031 20.722656 17.636719 20.925781 17.460938 20.992188 Z M 19.75 23.589844 C 19.488281 23.703125 19.1875 23.589844 19.085938 23.328125 C 18.960938 23.078125 19.085938 22.773438 19.339844 22.667969 L 19.339844 22.671875 C 19.597656 22.550781 19.898438 22.671875 20.003906 22.921875 C 20.117188 23.179688 20 23.484375 19.75 23.589844 Z M 19.75 23.589844 "/>
<use xlink:href="#surface5" mask="url(#mask0)"/>
<path style=" stroke:none;fill-rule:nonzero;fill:url(#linear0);" d="M 20.917969 0.546875 C 20.898438 0.625 20.898438 0.699219 20.917969 0.777344 C 20.917969 0.777344 21.167969 2.402344 20.878906 3.132812 L 9.089844 33.816406 C 8.25 36.074219 9.375 38.582031 11.636719 39.441406 C 13.898438 40.300781 16.402344 39.191406 17.300781 36.953125 L 29.089844 6.269531 C 29.320312 5.675781 30.640625 4.507812 30.640625 4.507812 C 30.699219 4.449219 30.757812 4.394531 30.796875 4.335938 L 30.796875 4.316406 C 30.796875 4.296875 30.816406 4.296875 30.816406 4.277344 C 31.121094 3.492188 29.148438 2 26.433594 0.949219 C 23.714844 -0.105469 21.246094 -0.316406 20.9375 0.488281 C 20.9375 0.507812 20.9375 0.527344 20.917969 0.546875 Z M 20.917969 0.546875 "/>
<path style=" stroke:none;fill-rule:nonzero;fill:url(#linear1);" d="M 24.632812 14.421875 L 16.113281 36.550781 C 15.480469 38.136719 13.664062 38.960938 12.035156 38.328125 C 10.410156 37.699219 9.546875 35.839844 10.140625 34.253906 L 15.578125 20.109375 C 15.578125 20.109375 16.246094 19.015625 17.585938 18.234375 C 18.925781 17.449219 20.015625 17.621094 21.492188 16.96875 C 22.984375 16.316406 24.632812 14.421875 24.632812 14.421875 Z M 24.632812 14.421875 "/>
<path style=" stroke:none;fill-rule:nonzero;fill:rgb(20%,20%,20%);fill-opacity:1;" d="M 28.761719 3.636719 C 28.933594 3.195312 27.710938 2.3125 26.035156 1.664062 C 24.355469 1.019531 22.863281 0.851562 22.691406 1.296875 C 22.523438 1.738281 23.742188 2.621094 25.421875 3.269531 C 27.097656 3.917969 28.589844 4.082031 28.761719 3.636719 Z M 28.761719 3.636719 "/>
<use xlink:href="#surface8" mask="url(#mask1)"/>
<use xlink:href="#surface11" mask="url(#mask2)"/>
</g>
</svg>
