<?xml version="1.0" encoding="UTF-8"?>
<svg xmlns="http://www.w3.org/2000/svg" xmlns:xlink="http://www.w3.org/1999/xlink" width="px" height="40px" viewBox="0 0 40 40" version="1.1">
<defs>
<filter id="alpha" filterUnits="objectBoundingBox" x="0%" y="0%" width="100%" height="100%">
  <feColorMatrix type="matrix" in="SourceGraphic" values="0 0 0 0 1 0 0 0 0 1 0 0 0 0 1 0 0 0 1 0"/>
</filter>
<mask id="mask0">
  <g filter="url(#alpha)">
<rect x="0" y="0" width="40" height="40" style="fill:rgb(0%,0%,0%);fill-opacity:0.8;stroke:none;"/>
  </g>
</mask>
<linearGradient id="linear0" gradientUnits="userSpaceOnUse" x1="95.2667" y1="91.9263" x2="26.7" y2="30.68" gradientTransform="matrix(0.3125,0,0,0.3125,0,0)">
<stop offset="0" style="stop-color:rgb(66.27451%,78.431373%,100%);stop-opacity:1;"/>
<stop offset="1" style="stop-color:rgb(78.039216%,90.196078%,100%);stop-opacity:1;"/>
</linearGradient>
<clipPath id="clip1">
  <rect x="0" y="0" width="40" height="40"/>
</clipPath>
<g id="surface6" clip-path="url(#clip1)">
<path style=" stroke:none;fill-rule:evenodd;fill:url(#linear0);" d="M 2.824219 34.0625 C 2.3125 34.0625 1.871094 33.863281 1.578125 33.5 C 1.28125 33.128906 1.179688 32.621094 1.300781 32.105469 L 6.921875 7.757812 C 7.15625 6.738281 8.144531 5.9375 9.171875 5.9375 L 37.179688 5.9375 C 37.6875 5.9375 38.132812 6.136719 38.421875 6.5 C 38.71875 6.871094 38.820312 7.378906 38.703125 7.894531 L 33.082031 32.242188 C 32.847656 33.261719 31.855469 34.0625 30.832031 34.0625 Z M 2.824219 34.0625 "/>
</g>
<linearGradient id="linear1" gradientUnits="userSpaceOnUse" x1="26.5854" y1="30.7778" x2="93.5854" y2="90.2778" gradientTransform="matrix(0.3125,0,0,0.3125,0,0)">
<stop offset="0" style="stop-color:rgb(17.647059%,27.45098%,39.215686%);stop-opacity:1;"/>
<stop offset="0.1689" style="stop-color:rgb(16.078431%,25.098039%,35.686275%);stop-opacity:1;"/>
<stop offset="0.4445" style="stop-color:rgb(11.764706%,18.431373%,26.27451%);stop-opacity:1;"/>
<stop offset="0.7902" style="stop-color:rgb(4.705882%,7.45098%,10.588235%);stop-opacity:1;"/>
<stop offset="1" style="stop-color:rgb(0%,0%,0%);stop-opacity:1;"/>
</linearGradient>
</defs>
<g id="surface1">
<use xlink:href="#surface6" mask="url(#mask0)"/>
<path style=" stroke:none;fill-rule:evenodd;fill:url(#linear1);" d="M 37.03125 6.25 L 9.261719 6.25 C 8.394531 6.25 7.53125 6.957031 7.332031 7.828125 L 1.761719 32.171875 C 1.5625 33.042969 2.101562 33.75 2.964844 33.75 L 30.734375 33.75 C 31.601562 33.75 32.464844 33.042969 32.664062 32.171875 L 38.238281 7.828125 C 38.4375 6.957031 37.894531 6.25 37.03125 6.25 Z M 37.03125 6.25 "/>
<path style=" stroke:none;fill-rule:evenodd;fill:rgb(17.254902%,33.333333%,56.862745%);fill-opacity:1;" d="M 20.050781 27.363281 L 26.804688 27.363281 C 27.589844 27.363281 28.226562 28.027344 28.226562 28.84375 C 28.226562 29.664062 27.589844 30.328125 26.804688 30.328125 L 20.050781 30.328125 C 19.265625 30.328125 18.628906 29.664062 18.628906 28.84375 C 18.628906 28.027344 19.265625 27.363281 20.050781 27.363281 Z M 20.050781 27.363281 "/>
<path style=" stroke:none;fill-rule:evenodd;fill:rgb(17.254902%,33.333333%,56.862745%);fill-opacity:1;" d="M 24.433594 20.765625 C 24.316406 21 24.074219 21.257812 23.648438 21.558594 L 11.113281 30.5625 C 10.429688 31.058594 9.445312 30.875 8.917969 30.148438 C 8.390625 29.425781 8.519531 28.433594 9.203125 27.9375 L 20.507812 19.75 L 20.507812 19.582031 L 13.40625 12.027344 C 12.824219 11.410156 12.886719 10.414062 13.539062 9.800781 C 14.195312 9.1875 15.191406 9.191406 15.773438 9.804688 L 24.292969 18.871094 C 24.777344 19.386719 24.8125 20.167969 24.433594 20.765625 Z M 24.433594 20.765625 "/>
<path style=" stroke:none;fill-rule:evenodd;fill:rgb(100%,100%,100%);fill-opacity:1;" d="M 24.121094 20.453125 C 24.003906 20.6875 23.761719 20.945312 23.335938 21.246094 L 10.800781 30.25 C 10.117188 30.746094 9.132812 30.5625 8.605469 29.835938 C 8.078125 29.113281 8.207031 28.121094 8.890625 27.625 L 20.195312 19.4375 L 20.195312 19.269531 L 13.09375 11.714844 C 12.511719 11.097656 12.574219 10.101562 13.226562 9.488281 C 13.882812 8.875 14.878906 8.878906 15.460938 9.492188 L 23.980469 18.558594 C 24.464844 19.074219 24.5 19.855469 24.121094 20.453125 Z M 24.121094 20.453125 "/>
<path style=" stroke:none;fill-rule:evenodd;fill:rgb(100%,100%,100%);fill-opacity:1;" d="M 19.859375 27.1875 L 26.613281 27.1875 C 27.398438 27.1875 28.035156 27.816406 28.035156 28.59375 C 28.035156 29.371094 27.398438 30 26.613281 30 L 19.859375 30 C 19.074219 30 18.4375 29.371094 18.4375 28.59375 C 18.4375 27.816406 19.074219 27.1875 19.859375 27.1875 Z M 19.859375 27.1875 "/>
</g>
</svg>
