<svg version="1.2" xmlns="http://www.w3.org/2000/svg" viewBox="0 0 40 40" width="160" height="160"><defs><linearGradient id="P" gradientUnits="userSpaceOnUse"/><linearGradient id="g1" x2="1" href="#P" gradientTransform="matrix(17.665,15.334,-24.082,27.744,3.23,1.541)"><stop stop-color="#5a9fd4"/><stop offset="1" stop-color="#306998"/></linearGradient><linearGradient id="g2" x2="1" href="#P" gradientTransform="matrix(-6.308,-9.004,14.564,-10.204,27.725,26.154)"><stop stop-color="#ffd43b"/><stop offset="1" stop-color="#ffe873"/></linearGradient></defs><style>.a{fill:url(#g1)}.b{fill:url(#g2)}</style><path class="a" d="m19.8 0.6c-1.3 0-2.6 0.1-3.7 0.3-3.2 0.6-3.8 1.8-3.8 4v3h7.7v1h-10.6c-2.3 0-4.2 1.3-4.9 3.9-0.7 2.9-0.7 4.8 0 7.8 0.6 2.3 1.9 3.9 4.1 3.9h2.7v-3.5c0-2.5 2.2-4.8 4.8-4.8h7.7c2.2 0 3.9-1.8 3.9-3.9v-7.4c0-2-1.8-3.6-3.9-4-1.3-0.2-2.7-0.3-4-0.3zm-4.2 2.4c0.8 0 1.5 0.6 1.5 1.5 0 0.8-0.7 1.4-1.5 1.4-0.8 0-1.4-0.6-1.4-1.4 0-0.9 0.6-1.5 1.4-1.5z"/><path class="b" d="m28.7 8.9v3.4c0 2.7-2.3 4.9-4.9 4.9h-7.7c-2.1 0-3.8 1.8-3.8 3.9v7.4c0 2 1.8 3.3 3.8 3.9 2.5 0.7 4.8 0.8 7.7 0 2-0.6 3.9-1.7 3.9-3.9v-3h-7.7v-1h11.5c2.3 0 3.1-1.5 3.9-3.9 0.8-2.4 0.8-4.7 0-7.8-0.5-2.3-1.6-3.9-3.9-3.9zm-4.3 18.6c0.8 0 1.5 0.6 1.5 1.4 0 0.9-0.7 1.5-1.5 1.5-0.8 0-1.4-0.6-1.4-1.5 0-0.8 0.6-1.4 1.4-1.4z"/></svg>
