<?xml version="1.0" encoding="UTF-8"?>
<svg xmlns="http://www.w3.org/2000/svg" xmlns:xlink="http://www.w3.org/1999/xlink" width="px" height="40px" viewBox="0 0 40 40" version="1.1">
<defs>
<linearGradient id="linear0" gradientUnits="userSpaceOnUse" x1="70.252" y1="1237.476" x2="170.659" y2="1151.089" gradientTransform="matrix(0.175937,0,0,-0.1775,-9.129687,221.192812)">
<stop offset="0" style="stop-color:rgb(35.294118%,62.352941%,83.137255%);stop-opacity:1;"/>
<stop offset="1" style="stop-color:rgb(18.823529%,41.176471%,59.607843%);stop-opacity:1;"/>
</linearGradient>
<linearGradient id="linear1" gradientUnits="userSpaceOnUse" x1="209.474" y1="1098.811" x2="173.62" y2="1149.537" gradientTransform="matrix(0.175937,0,0,-0.1775,-9.129687,221.192812)">
<stop offset="0" style="stop-color:rgb(100%,83.137255%,23.137255%);stop-opacity:1;"/>
<stop offset="1" style="stop-color:rgb(100%,90.980392%,45.098039%);stop-opacity:1;"/>
</linearGradient>
<filter id="alpha" filterUnits="objectBoundingBox" x="0%" y="0%" width="100%" height="100%">
  <feColorMatrix type="matrix" in="SourceGraphic" values="0 0 0 0 1 0 0 0 0 1 0 0 0 0 1 0 0 0 1 0"/>
</filter>
<mask id="mask0">
  <g filter="url(#alpha)">
<rect x="0" y="0" width="40" height="40" style="fill:rgb(0%,0%,0%);fill-opacity:0.443137;stroke:none;"/>
  </g>
</mask>
<radialGradient id="radial0" gradientUnits="userSpaceOnUse" cx="1825.678" cy="444.45" fx="1825.678" fy="444.45" r="26.743" gradientTransform="matrix(0,-0.075,-0.329687,0,166.555937,174.2425)">
<stop offset="0" style="stop-color:rgb(72.156863%,72.156863%,72.156863%);stop-opacity:0.498039;"/>
<stop offset="1" style="stop-color:rgb(49.803922%,49.803922%,49.803922%);stop-opacity:0;"/>
</radialGradient>
<clipPath id="clip1">
  <rect x="0" y="0" width="40" height="40"/>
</clipPath>
<g id="surface5" clip-path="url(#clip1)">
<path style=" stroke:none;fill-rule:nonzero;fill:url(#radial0);" d="M 30.410156 37.375 C 30.410156 38.480469 25.777344 39.378906 20.066406 39.378906 C 14.355469 39.378906 9.726562 38.480469 9.726562 37.375 C 9.726562 36.265625 14.355469 35.367188 20.066406 35.367188 C 25.777344 35.367188 30.410156 36.265625 30.410156 37.375 Z M 30.410156 37.375 "/>
</g>
</defs>
<g id="surface1">
<path style=" stroke:none;fill-rule:nonzero;fill:url(#linear0);" d="M 19.808594 0.621094 C 18.492188 0.628906 17.230469 0.738281 16.121094 0.9375 C 12.855469 1.511719 12.265625 2.71875 12.265625 4.949219 L 12.265625 7.886719 L 19.980469 7.886719 L 19.980469 8.867188 L 9.367188 8.867188 C 7.125 8.867188 5.160156 10.214844 4.546875 12.78125 C 3.839844 15.71875 3.808594 17.554688 4.546875 20.625 C 5.09375 22.910156 6.40625 24.535156 8.648438 24.535156 L 11.300781 24.535156 L 11.300781 21.011719 C 11.300781 18.464844 13.503906 16.21875 16.121094 16.21875 L 23.832031 16.21875 C 25.976562 16.21875 27.6875 14.449219 27.6875 12.296875 L 27.6875 4.949219 C 27.6875 2.855469 25.925781 1.285156 23.832031 0.9375 C 22.503906 0.714844 21.128906 0.617188 19.808594 0.621094 Z M 15.636719 2.988281 C 16.433594 2.988281 17.085938 3.648438 17.085938 4.460938 C 17.085938 5.273438 16.433594 5.925781 15.636719 5.925781 C 14.835938 5.925781 14.1875 5.273438 14.1875 4.460938 C 14.1875 3.648438 14.835938 2.988281 15.636719 2.988281 Z M 15.636719 2.988281 "/>
<path style=" stroke:none;fill-rule:nonzero;fill:url(#linear1);" d="M 28.652344 8.867188 L 28.652344 12.296875 C 28.652344 14.953125 26.398438 17.1875 23.828125 17.1875 L 16.121094 17.1875 C 14.011719 17.1875 12.265625 18.996094 12.265625 21.109375 L 12.265625 28.457031 C 12.265625 30.546875 14.082031 31.777344 16.121094 32.378906 C 18.566406 33.097656 20.90625 33.226562 23.828125 32.378906 C 25.773438 31.816406 27.6875 30.683594 27.6875 28.457031 L 27.6875 25.515625 L 19.980469 25.515625 L 19.980469 24.535156 L 31.546875 24.535156 C 33.789062 24.535156 34.625 22.972656 35.40625 20.625 C 36.210938 18.207031 36.175781 15.882812 35.40625 12.78125 C 34.851562 10.546875 33.792969 8.867188 31.546875 8.867188 Z M 24.316406 27.476562 C 25.117188 27.476562 25.761719 28.132812 25.761719 28.945312 C 25.761719 29.757812 25.117188 30.417969 24.316406 30.417969 C 23.519531 30.417969 22.867188 29.757812 22.867188 28.945312 C 22.867188 28.132812 23.519531 27.476562 24.316406 27.476562 Z M 24.316406 27.476562 "/>
<use xlink:href="#surface5" mask="url(#mask0)"/>
</g>
</svg>
